<svg width="54" height="50" viewBox="0 0 54 50" fill="none" xmlns="http://www.w3.org/2000/svg">
<path d="M53.3305 50H46.066V3.11336C46.066 1.41032 47.4497 0 49.1793 0H50.2171C51.9202 0 53.3305 1.38371 53.3305 3.11336V50Z" fill="#84CBF9"/>
<path d="M30.6322 49.9999H23.3677V17.9616C23.3677 16.2586 24.7514 14.8483 26.4811 14.8483H27.5189C29.2219 14.8483 30.6322 16.232 30.6322 17.9616V49.9999Z" fill="#4465DF"/>
<path d="M41.9681 50H34.7036V12.2139C34.7036 10.5109 36.0873 9.10059 37.8169 9.10059H38.8547C40.5577 9.10059 41.9681 10.4843 41.9681 12.2139V50Z" fill="#4465DF"/>
<path d="M7.934 50.0001H0.669495V31.3997C0.669495 29.6967 2.05321 28.2864 3.78285 28.2864H4.82064C6.52367 28.2864 7.934 29.6701 7.934 31.3997V50.0001Z" fill="#4465DF"/>
<path d="M19.2698 50H12.0319V25.439C12.0319 23.736 13.4156 22.3257 15.1453 22.3257H16.1831C17.8861 22.3257 19.2964 23.7094 19.2964 25.439L19.2698 50Z" fill="#4465DF"/>
</svg>
