<svg width="36" height="50" viewBox="0 0 36 50" fill="none" xmlns="http://www.w3.org/2000/svg">
<path d="M2.54188 25.0665C1.82341 25.0665 1.21138 24.5077 1.15816 23.7892C0.439696 14.8483 1.90324 8.3289 5.49558 4.39063C8.18318 1.46354 12.0416 0 16.9644 0C31.3072 0 34.1012 15.6466 34.1278 15.8063C34.2609 16.578 33.7287 17.2964 32.9836 17.4029C32.2385 17.5359 31.4935 17.0303 31.387 16.2587C31.2806 15.6998 28.9389 2.76743 16.9911 2.76743C12.8399 2.76743 9.75316 3.91166 7.59776 6.27994C4.53762 9.60618 3.31357 15.4071 3.97882 23.5498C4.03204 24.3214 3.47323 24.9867 2.70154 25.0665C2.62171 25.0665 2.5951 25.0665 2.54188 25.0665Z" fill="#4465DF"/>
<path d="M2.54186 32.1714C2.00966 32.1714 1.50407 31.8786 1.26458 31.3464C0.945266 30.628 1.26459 29.8031 1.98306 29.5104C6.69301 27.3816 6.61317 26.1575 6.45352 22.4587C6.34708 20.3832 6.21403 17.7754 6.90589 14.3161C8.05011 8.51515 12.8665 6.12026 17.0709 6.27992C21.9139 6.4928 25.6393 9.84564 26.1448 14.4225C26.7569 20.1171 30.0299 20.5694 33.4626 20.1969C34.2343 20.1171 34.9261 20.6759 35.0059 21.4476C35.0858 22.2193 34.527 22.9111 33.7553 22.9909C27.5286 23.6562 24.0427 20.8621 23.3774 14.7153C22.9783 10.9899 19.8649 9.20701 16.9644 9.07396C14.1704 8.96752 10.5514 10.3778 9.6467 14.8483C9.03468 17.9883 9.14111 20.3832 9.22094 22.3257C9.43382 26.6897 9.24756 29.2975 3.10067 32.0649C2.9144 32.1447 2.72813 32.1714 2.51525 32.1714H2.54186Z" fill="#4465DF"/>
<path d="M32.7441 34.859C32.6643 34.859 32.5579 34.859 32.478 34.8324C15.7404 31.5594 12.9464 28.2065 12.6004 19.1592C12.494 16.3119 13.4254 14.0501 15.1284 13.0123C16.3258 12.2938 17.7628 12.2672 18.9868 12.959C20.7697 13.9702 21.8075 16.2055 21.8075 19.1059C21.8075 22.8579 25.7457 25.2262 33.8085 26.4237C34.5802 26.5301 35.1124 27.2486 35.006 28.0203C34.8995 28.7919 34.1811 29.3241 33.4094 29.2177C29.8437 28.6855 19.0134 27.0889 19.0134 19.1059C19.0134 16.9505 18.295 15.7797 17.6031 15.3805C17.2572 15.1943 16.9113 15.1943 16.5653 15.3805C15.9267 15.7531 15.288 16.9239 15.3679 19.0261C15.634 25.8915 16.4057 28.8185 32.9836 32.065C33.7553 32.2246 34.2343 32.9431 34.1012 33.7148C33.9682 34.4066 33.3828 34.859 32.7441 34.859Z" fill="#4465DF"/>
<path d="M2.5419 37.5466C1.98309 37.5466 1.47751 37.2007 1.23802 36.6685C0.945308 35.95 1.29124 35.1251 2.0097 34.859C4.00545 34.0607 9.51369 31.6126 11.0837 29.8564C11.5893 29.2709 12.4674 29.2177 13.0528 29.7499C13.6382 30.2555 13.6915 31.1336 13.1593 31.7191C10.8974 34.3002 3.81918 37.1475 3.02088 37.4668C2.88783 37.5466 2.70156 37.5732 2.5419 37.5466Z" fill="#4465DF"/>
<path d="M5.65526 42.7887C5.20289 42.7887 4.75052 42.5492 4.48442 42.1501C4.05867 41.4849 4.24494 40.6333 4.91018 40.2076L5.06984 40.1011C13.6648 34.5929 17.9756 31.8255 31.3604 37.2805C32.0789 37.5732 32.4248 38.3981 32.1321 39.1166C31.8394 39.835 31.0411 40.181 30.296 39.8883C18.2684 34.992 15.0752 37.041 6.58661 42.496L6.42695 42.6025C6.18746 42.7355 5.92136 42.7887 5.65526 42.7887Z" fill="#4465DF"/>
<path d="M8.95485 46.5673C8.47587 46.5673 7.99689 46.3278 7.7574 45.8755C7.35825 45.2102 7.57113 44.3587 8.23638 43.9595C16.0065 39.3294 19.8915 38.8238 27.9277 41.3252C28.6728 41.5646 29.0719 42.3363 28.8591 43.0814C28.6196 43.8265 27.8479 44.2256 27.1028 44.0128C19.8383 41.7509 16.7515 42.1767 9.67331 46.381C9.46044 46.5141 9.22095 46.5673 8.95485 46.5673Z" fill="#4465DF"/>
<path d="M17.6031 50C15.4477 50 13.7979 49.6541 13.6648 49.6009C12.9197 49.4146 12.4407 48.6696 12.6004 47.9245C12.7867 47.1794 13.5051 46.7004 14.2768 46.8601C14.33 46.8601 20.1044 48.1107 23.5637 45.5828C24.1757 45.1304 25.0538 45.2635 25.5328 45.8755C25.9852 46.4875 25.8521 47.3657 25.2401 47.8446C22.8984 49.5743 19.9447 50 17.6031 50Z" fill="#4465DF"/>
</svg>
