<svg width="48" height="72" viewBox="0 0 48 72" fill="none" xmlns="http://www.w3.org/2000/svg">
<path d="M36.3332 30.3645H11.705C10.1753 30.3645 8.95158 29.1408 8.95158 27.6111V15.0675C8.95158 6.76891 15.7205 0 24.0191 0C32.3177 0 39.0867 6.76891 39.0867 15.0675V27.6111C39.0867 29.1408 37.8629 30.3645 36.3332 30.3645ZM14.4585 24.8576H33.5797V15.0675C33.5797 9.79007 29.2966 5.50691 24.0191 5.50691C18.7416 5.50691 14.4585 9.79007 14.4585 15.0675V24.8576Z" fill="#84CBF9"/>
<path d="M43.3698 24.8577H4.63019C2.33564 24.8577 0.5 26.6933 0.5 28.9879V67.7275C0.5 70.022 2.33564 71.8577 4.63019 71.8577H43.3698C45.6644 71.8577 47.5 70.022 47.5 67.7275V28.9879C47.5 26.7315 45.6644 24.8577 43.3698 24.8577ZM26.6579 52.9659V62.0294H21.3039V52.9659C19.43 52.0098 18.1298 50.0595 18.1298 47.8031C18.1298 44.5908 20.7303 41.9903 23.9426 41.9903C27.155 41.9903 29.7555 44.5908 29.7555 47.8031C29.7937 50.0212 28.5317 51.9716 26.6579 52.9659Z" fill="#4465DF"/>
</svg>
