<?xml version="1.0" encoding="utf-8"?>
<!-- Generator: Adobe Illustrator 26.2.1, SVG Export Plug-In . SVG Version: 6.00 Build 0)  -->
<svg version="1.1" id="Layer_1" xmlns="http://www.w3.org/2000/svg" xmlns:xlink="http://www.w3.org/1999/xlink" x="0px" y="0px"
	 viewBox="0 0 64 64" style="enable-background:new 0 0 64 64;" xml:space="preserve">
<style type="text/css">
	.st0{fill:#FF786A;}
	.st1{fill:#4169E1;}
	.st2{fill:#6DCEFF;}
</style>
<g>
	<g>
		<path class="st1" d="M41.3389,48.7887c-0.1022,0-0.2049-0.0181-0.3043-0.0553c-0.3387-0.127-0.5629-0.4505-0.5629-0.8119v-7.0092
			H30.0869c-0.4788,0-0.8672-0.3884-0.8672-0.8672c0-0.4788,0.3884-0.8672,0.8672-0.8672h11.252
			c0.4788,0,0.8672,0.3884,0.8672,0.8672v5.5633l11.82-13.5493L41.9814,18.3761V23.73c0,0.4788-0.3884,0.8672-0.8672,0.8672H30.1998
			c-0.4788,0-0.8672-0.3884-0.8672-0.8672c0-0.479,0.3884-0.8672,0.8672-0.8672h10.0472v-6.7842
			c0-0.3608,0.2236-0.684,0.5612-0.8113c0.3365-0.1273,0.7187-0.0327,0.957,0.2383l14.0647,15.9778
			c0.2874,0.3263,0.2885,0.8153,0.0023,1.1433l-13.84,15.8652C41.8245,48.6842,41.5845,48.7887,41.3389,48.7887z"/>
	</g>
	<g>
		<path class="st1" d="M31.2121,32.9235H8.821c-0.479,0-0.8672-0.3884-0.8672-0.8672c0-0.4788,0.3881-0.8672,0.8672-0.8672h22.3911
			c0.4788,0,0.8672,0.3884,0.8672,0.8672C32.0793,32.5351,31.6909,32.9235,31.2121,32.9235z"/>
	</g>
	<g>
		<path class="st2" d="M24.4615,37.8743H10.7338c-0.479,0-0.8672-0.3884-0.8672-0.8672c0-0.4788,0.3881-0.8672,0.8672-0.8672
			h13.7277c0.4788,0,0.8672,0.3884,0.8672,0.8672C25.3287,37.4859,24.9403,37.8743,24.4615,37.8743z"/>
	</g>
	<g>
		<path class="st2" d="M26.9366,27.8604H13.2095c-0.479,0-0.8672-0.3884-0.8672-0.8672c0-0.4788,0.3881-0.8672,0.8672-0.8672
			h13.7271c0.4788,0,0.8672,0.3884,0.8672,0.8672C27.8038,27.472,27.4154,27.8604,26.9366,27.8604z"/>
	</g>
</g>
</svg>
