<?xml version="1.0" encoding="UTF-8"?><svg id="a" xmlns="http://www.w3.org/2000/svg" viewBox="0 0 64 64"><defs><style>.b{fill:#3063f0;}.c{fill:#6dceff;}</style></defs><path class="c" d="M42.84,35.24c.34-1.7,.27-3.4-.18-4.99l2.35-1.14c.82-.4,1.16-1.38,.76-2.2l-.12-.25c-.4-.82-1.38-1.16-2.2-.76l-2.31,1.12c-.93-1.33-2.16-2.46-3.64-3.27l.91-2.64c.3-.86-.16-1.79-1.02-2.09l-.26-.09c-.86-.3-1.79,.16-2.09,1.02l-.91,2.64c-1.75-.29-3.51-.14-5.12,.4l-1.22-2.51c-.4-.82-1.38-1.16-2.2-.76l-.25,.12c-.82,.4-1.16,1.38-.76,2.2l1.27,2.62c-1.24,.96-2.28,2.2-3.02,3.66l-2.92-1.01c-.86-.3-1.79,.16-2.09,1.02l-.09,.26c-.3,.86,.16,1.79,1.02,2.09l3.03,1.05c-.21,1.55-.06,3.09,.39,4.53l-2.99,1.45c-.82,.4-1.16,1.38-.76,2.2l.12,.25c.4,.82,1.38,1.16,2.2,.76l3.03-1.47c.91,1.24,2.09,2.29,3.5,3.06l-1.03,2.98c-.3,.86,.16,1.79,1.02,2.09l.26,.09c.86,.3,1.79-.16,2.09-1.02l1.03-2.98c1.49,.25,2.98,.18,4.39-.18l1.38,2.84c.4,.82,1.38,1.16,2.2,.76l.25-.12c.82-.4,1.16-1.38,.76-2.2l-1.33-2.73c1.33-.88,2.47-2.04,3.31-3.46l2.69,.93c.86,.3,1.79-.16,2.09-1.02l.09-.26c.3-.86-.16-1.79-1.02-2.09l-2.59-.9Zm-6.09-.6c-.84,2.42-3.47,3.7-5.89,2.86-2.42-.84-3.7-3.47-2.86-5.89,.84-2.42,3.47-3.7,5.89-2.86,2.42,.84,3.7,3.47,2.86,5.89Z"/><g><g><path class="b" d="M9.75,34.71c-.83,0-1.5-.67-1.5-1.5,0-13.37,10.88-24.25,24.25-24.25,8.07,0,15.58,4,20.1,10.69,.46,.69,.28,1.62-.4,2.08-.69,.46-1.62,.28-2.08-.4-3.96-5.87-10.55-9.37-17.62-9.37-11.72,0-21.25,9.53-21.25,21.25,0,.83-.67,1.5-1.5,1.5Z"/><path class="b" d="M53.43,22.45l-11.2-.4c-.83-.03-1.48-.72-1.45-1.55,.03-.83,.74-1.49,1.55-1.45l8.04,.28-.15-8.04c-.02-.83,.64-1.51,1.47-1.53,.82,0,1.51,.64,1.53,1.47l.21,11.21Z"/></g><g><path class="b" d="M31.51,56.38c-8.07,0-15.58-4-20.1-10.69-.46-.69-.28-1.62,.4-2.08s1.62-.28,2.08,.4c3.96,5.87,10.55,9.37,17.62,9.37,11.72,0,21.25-9.53,21.25-21.25,0-.83,.67-1.5,1.5-1.5s1.5,.67,1.5,1.5c0,13.37-10.88,24.25-24.25,24.25Z"/><path class="b" d="M12.29,55.57c-.82,0-1.48-.65-1.5-1.47l-.21-11.21,11.2,.4c.83,.03,1.48,.72,1.45,1.55-.03,.83-.74,1.48-1.55,1.45l-8.04-.29,.15,8.04c.02,.83-.64,1.51-1.47,1.53h-.03Z"/></g></g></svg>