<svg width="54" height="50" viewBox="0 0 54 50" fill="none" xmlns="http://www.w3.org/2000/svg">
<path d="M43.4628 26.5957C47.1596 26.5957 50.5106 28.1383 52.9043 30.5851V10.1862C52.9043 9.06915 52 8.19149 50.9096 8.19149H44.9787V1.51596C44.9787 0.691489 44.2872 0 43.4628 0C42.6383 0 41.9468 0.691489 41.9468 1.51596V8.19149H11.3085V1.51596C11.3085 0.691489 10.617 0 9.79255 0C8.96808 0 8.27659 0.691489 8.27659 1.51596V8.19149H2.34574C1.22872 8.19149 0.351059 9.09575 0.351059 10.1862V43.6702C0.351059 44.7872 1.25531 45.6649 2.34574 45.6649H31.6542C30.7766 43.883 30.2713 41.8883 30.2713 39.7872C30.2713 32.5266 36.1755 26.5957 43.4628 26.5957ZM43.4628 16.8351C44.766 16.8351 45.8032 17.8989 45.8032 19.1755C45.8032 20.4521 44.7394 21.516 43.4628 21.516C42.1596 21.516 41.1223 20.4521 41.1223 19.1755C41.1223 17.8989 42.1596 16.8351 43.4628 16.8351ZM35.0319 16.8351C36.3351 16.8351 37.3723 17.8989 37.3723 19.1755C37.3723 20.4521 36.3085 21.516 35.0319 21.516C33.7287 21.516 32.6915 20.4521 32.6915 19.1755C32.6915 17.8989 33.7553 16.8351 35.0319 16.8351ZM9.79255 37.0213C8.48936 37.0213 7.45212 35.9574 7.45212 34.6809C7.45212 33.3777 8.51595 32.3404 9.79255 32.3404C11.0691 32.3404 12.133 33.4043 12.133 34.6809C12.1596 35.984 11.0957 37.0213 9.79255 37.0213ZM9.79255 29.2819C8.48936 29.2819 7.45212 28.2181 7.45212 26.9415C7.45212 25.6649 8.51595 24.6011 9.79255 24.6011C11.0691 24.6011 12.133 25.6649 12.133 26.9415C12.133 28.2181 11.0957 29.2819 9.79255 29.2819ZM18.2234 37.0213C16.9202 37.0213 15.883 35.9574 15.883 34.6809C15.883 33.3777 16.9468 32.3404 18.2234 32.3404C19.5266 32.3404 20.5638 33.4043 20.5638 34.6809C20.5638 35.984 19.5 37.0213 18.2234 37.0213ZM18.2234 29.2819C16.9202 29.2819 15.883 28.2181 15.883 26.9415C15.883 25.6649 16.9468 24.6011 18.2234 24.6011C19.5266 24.6011 20.5638 25.6649 20.5638 26.9415C20.5638 28.2181 19.5 29.2819 18.2234 29.2819ZM18.2234 21.516C16.9202 21.516 15.883 20.4521 15.883 19.1755C15.883 17.8989 16.9468 16.8351 18.2234 16.8351C19.5266 16.8351 20.5638 17.8989 20.5638 19.1755C20.5638 20.4521 19.5 21.516 18.2234 21.516ZM26.6277 29.2819C25.3245 29.2819 24.2872 28.2181 24.2872 26.9415C24.2872 25.6649 25.3511 24.6011 26.6277 24.6011C27.9308 24.6011 28.9681 25.6649 28.9681 26.9415C28.9681 28.2181 27.9308 29.2819 26.6277 29.2819ZM26.6277 21.516C25.3245 21.516 24.2872 20.4521 24.2872 19.1755C24.2872 17.8989 25.3511 16.8351 26.6277 16.8351C27.9308 16.8351 28.9681 17.8989 28.9681 19.1755C28.9681 20.4521 27.9308 21.516 26.6277 21.516Z" fill="#4465DF"/>
<path d="M43.4628 29.6277C37.8511 29.6277 33.2766 34.2022 33.2766 39.8139C33.2766 45.4256 37.8511 50 43.4628 50C49.0745 50 53.6489 45.4256 53.6489 39.8139C53.6489 34.2022 49.0745 29.6277 43.4628 29.6277ZM49.2606 46.0639C48.9681 46.3298 48.5957 46.4628 48.2234 46.4628C47.8245 46.4628 47.4255 46.3032 47.133 45.9841L42.3457 40.8245C42.0798 40.5319 41.9468 40.1862 41.9468 39.7873V33.4043C41.9468 32.5798 42.6383 31.8883 43.4628 31.8883C44.2872 31.8883 44.9787 32.5798 44.9787 33.4043V39.2022L49.367 43.9096C49.8989 44.5479 49.8723 45.4788 49.2606 46.0639Z" fill="#84CBF9"/>
</svg>
