<svg width="48" height="51" viewBox="0 0 48 51" fill="none" xmlns="http://www.w3.org/2000/svg">
<path d="M47.5 25.9288C47.5 12.1256 36.975 0.928833 24 0.928833C11.025 0.928833 0.5 12.1256 0.5 25.9288C0.5 33.3224 3.5 39.9448 8.3 44.5193C8.675 40.3171 12.025 37.0193 16.05 37.0193H31.875C35.925 37.0193 39.275 40.3703 39.625 44.599C44.45 40.0246 47.475 33.349 47.5 25.9288ZM24 32.3916C19.35 32.3916 15.575 28.3756 15.575 23.4022C15.575 18.4288 19.35 14.4129 24 14.4129C28.65 14.4129 32.45 18.4288 32.45 23.4022C32.45 28.3756 28.65 32.3916 24 32.3916Z" fill="#3D62E6"/>
<path d="M24 14.4661C19.35 14.4661 15.575 18.482 15.575 23.4554C15.575 28.4288 19.35 32.4448 24 32.4448C28.65 32.4448 32.45 28.4288 32.45 23.4554C32.45 18.482 28.65 14.4661 24 14.4661Z" fill="#84CBF9"/>
<path d="M31.85 37.0193H16.025C12 37.0193 8.64999 40.3172 8.27499 44.5193C12.425 48.5086 17.95 50.9289 23.975 50.9289C30.025 50.9289 35.425 48.5352 39.6 44.5991C39.275 40.3704 35.9 37.0193 31.85 37.0193Z" fill="#84CBF9"/>
</svg>
